<?xml version="1.0" encoding="iso-8859-1"?>
<!-- Generator: Adobe Illustrator 19.0.0, SVG Export Plug-In . SVG Version: 6.00 Build 0)  -->
<svg version="1.1" id="Capa_1" xmlns="http://www.w3.org/2000/svg" xmlns:xlink="http://www.w3.org/1999/xlink" x="0px" y="0px"
	 viewBox="0 0 512 512" style="enable-background:new 0 0 512 512;" xml:space="preserve">
<rect x="36.913" y="97.93" style="fill:#E9EAEB;" width="438.17" height="375.04"/>
<rect x="419.46" y="97.93" style="fill:#B9BBC1;" width="55.63" height="375.04"/>
<path style="fill:#FDC74F;" d="M476.616,97.927H35.384V36.361c0-4.919,3.987-8.906,8.906-8.906h423.42
	c4.919,0,8.906,3.987,8.906,8.906V97.927z"/>
<path style="fill:#FCA629;" d="M467.71,27.455h-46.724v46.347h55.63V36.361C476.616,31.443,472.629,27.455,467.71,27.455z"/>
<path style="fill:#E60D28;" d="M36.913,209.569L36.913,209.569c-20.166,0-36.515-16.348-36.515-36.514v-29.748h73.029v29.748
	C73.428,193.221,57.079,209.569,36.913,209.569z"/>
<path style="fill:#F2F2F2;" d="M109.942,209.569L109.942,209.569c-20.166,0-36.515-16.348-36.515-36.514v-29.748h73.029v29.748
	C146.457,193.221,130.108,209.569,109.942,209.569z"/>
<path style="fill:#E60D28;" d="M182.971,209.569L182.971,209.569c-20.166,0-36.515-16.348-36.515-36.514v-29.748h73.029v29.748
	C219.486,193.221,203.137,209.569,182.971,209.569z"/>
<path style="fill:#F2F2F2;" d="M256,209.569L256,209.569c-20.166,0-36.515-16.348-36.515-36.514v-29.748h73.029v29.748
	C292.514,193.221,276.166,209.569,256,209.569z"/>
<path style="fill:#E60D28;" d="M329.029,209.569L329.029,209.569c-20.166,0-36.515-16.348-36.515-36.514v-29.748h73.029v29.748
	C365.544,193.221,349.195,209.569,329.029,209.569z"/>
<path style="fill:#F2F2F2;" d="M402.058,209.569L402.058,209.569c-20.166,0-36.515-16.348-36.515-36.514v-29.748h73.029v29.748
	C438.573,193.221,422.224,209.569,402.058,209.569z"/>
<path style="fill:#E60D28;" d="M475.087,209.569L475.087,209.569c-20.166,0-36.515-16.348-36.515-36.514v-29.748h73.029v29.748
	C511.602,193.221,495.253,209.569,475.087,209.569z"/>
<polygon style="fill:#FC502A;" points="73.427,143.306 0.398,143.306 35.347,73.802 98.391,73.802 "/>
<polygon style="fill:#FFFFFF;" points="146.456,143.306 73.427,143.306 98.391,73.802 161.434,73.802 "/>
<polygon style="fill:#FC502A;" points="219.485,143.306 146.456,143.306 161.434,73.802 224.478,73.802 "/>
<polygon style="fill:#FFFFFF;" points="292.514,143.306 219.485,143.306 224.478,73.802 287.522,73.802 "/>
<polygon style="fill:#FC502A;" points="365.543,143.306 292.514,143.306 287.522,73.802 350.566,73.802 "/>
<polygon style="fill:#FFFFFF;" points="438.572,143.306 365.543,143.306 350.566,73.802 413.609,73.802 "/>
<polygon style="fill:#FC502A;" points="511.601,143.306 438.572,143.306 413.609,73.802 476.653,73.802 "/>
<path style="fill:#8B8996;" d="M495.323,438.702H16.677C7.467,438.702,0,446.168,0,455.379v24.439c0,2.611,2.117,4.727,4.727,4.727
	h502.545c2.611,0,4.727-2.117,4.727-4.727v-24.439C512,446.168,504.533,438.702,495.323,438.702z"/>
<path style="fill:#706F7F;" d="M495.323,438.702h-39.124v45.843h51.074c2.611,0,4.727-2.116,4.727-4.727v-24.439
	C512,446.168,504.533,438.702,495.323,438.702z"/>
<path style="fill:#00C6C8;" d="M431.928,389.687H207.015c-3.67,0-6.645-2.975-6.645-6.645V259.281c0-3.67,2.975-6.645,6.645-6.645
	h224.913c3.67,0,6.645,2.975,6.645,6.645v123.762C438.573,386.712,435.598,389.687,431.928,389.687z"/>
<path style="fill:#0FB0C0;" d="M431.928,252.636h-49.157v137.051h49.157c3.67,0,6.645-2.975,6.645-6.645V259.281
	C438.573,255.611,435.598,252.636,431.928,252.636z"/>
<path style="fill:#00C6C8;" d="M168.781,438.702H66.165V259.281c0-3.67,2.975-6.645,6.645-6.645h89.326
	c3.67,0,6.645,2.975,6.645,6.645L168.781,438.702L168.781,438.702z"/>
<path style="fill:#0FB0C0;" d="M162.136,252.636h-49.157v186.066h55.801V259.281C168.781,255.611,165.806,252.636,162.136,252.636z"
	/>
<path style="fill:#FFFFFF;" d="M140.105,357.735c4.267,0,7.726-3.459,7.726-7.726v-13.907c0-4.267-3.459-7.726-7.726-7.726
	s-7.726,3.459-7.726,7.726v13.907C132.378,354.276,135.838,357.735,140.105,357.735z"/>
<g>
</g>
<g>
</g>
<g>
</g>
<g>
</g>
<g>
</g>
<g>
</g>
<g>
</g>
<g>
</g>
<g>
</g>
<g>
</g>
<g>
</g>
<g>
</g>
<g>
</g>
<g>
</g>
<g>
</g>
</svg>
